<svg width="512" height="510" viewBox="0 0 512 510" fill="none" xmlns="http://www.w3.org/2000/svg">
<path d="M129.675 0C58.0187 0 0 57.7921 0 129.168V380.832C0 452.148 58.0187 510 129.675 510H382.325C453.921 510 512 452.208 512 380.832V0H129.675ZM293.563 78.8236H432.867V217.584H293.563V78.8236ZM148.755 440.769C104.972 440.769 69.5028 405.438 69.5028 361.826C69.5028 318.214 104.972 282.883 148.755 282.883C192.538 282.883 228.007 318.214 228.007 361.826C228.007 405.438 192.538 440.769 148.755 440.769ZM148.755 227.176C104.972 227.176 69.5028 191.846 69.5028 148.234C69.5028 104.621 104.972 69.2909 148.755 69.2909C192.538 69.2909 228.007 104.621 228.007 148.234C228.007 191.846 192.538 227.176 148.755 227.176ZM363.185 440.769C319.402 440.769 283.933 405.438 283.933 361.826C283.933 318.214 319.402 282.883 363.185 282.883C406.968 282.883 442.437 318.214 442.437 361.826C442.437 405.438 406.968 440.769 363.185 440.769Z" fill="#A9C23D"/>
</svg>
