<svg width="186" height="33" viewBox="0 0 186 33" fill="none" xmlns="http://www.w3.org/2000/svg">
<g id="SquarePeg_Logo_FullColor_RGB">
<g id="b">
<path id="Vector" d="M8.96627 0.0151062C4.54316 0.0151062 0.960938 3.58222 0.960938 7.98844V23.5236C0.960938 27.9262 4.54227 31.4969 8.96627 31.4969H24.5627C28.9823 31.4969 32.5672 27.9298 32.5672 23.5236V0.0151062H8.96627ZM19.0836 4.88088H27.6827V13.4462H19.0836V4.88088ZM10.1449 27.2231C7.44183 27.2231 5.25249 25.0427 5.25249 22.3502C5.25249 19.6578 7.44183 17.4773 10.1449 17.4773C12.848 17.4773 15.0374 19.6587 15.0374 22.3502C15.0374 25.0418 12.848 27.2231 10.1449 27.2231ZM10.1449 14.0382C7.44183 14.0382 5.25249 11.8569 5.25249 9.16533C5.25249 6.47377 7.44183 4.29244 10.1449 4.29244C12.848 4.29244 15.0374 6.47377 15.0374 9.16533C15.0374 11.8569 12.848 14.0382 10.1449 14.0382ZM23.3823 27.2231C20.6792 27.2231 18.4898 25.0427 18.4898 22.3502C18.4898 19.6578 20.6792 17.4773 23.3823 17.4773C26.0854 17.4773 28.2747 19.6587 28.2747 22.3502C28.2747 25.0418 26.0854 27.2231 23.3823 27.2231Z" fill="#A9C23D"/>
<path id="Vector_2" d="M40.425 21.1822L44.113 19.4827C44.689 20.8658 45.7842 22.1911 47.7139 22.1911C49.0677 22.1911 50.3068 21.528 50.3068 19.944C50.3068 18.7342 49.6446 18.1573 47.6855 17.3796L46.4179 16.8898C43.681 15.7947 41.1744 14.2969 41.1744 10.984C41.1744 7.44 44.1415 5.27911 47.6855 5.27911C51.2295 5.27911 53.4473 7.46844 54.4268 9.62933L51.0562 11.5307C50.1628 9.97511 49.1255 9.312 47.8579 9.312C46.5904 9.312 45.6686 9.888 45.6686 11.0409C45.6686 11.9342 46.1868 12.6258 48.3193 13.4898L49.7024 14.0373C53.3904 15.5067 55.0322 17.1778 55.0322 20.0009C55.0322 24.2649 51.2295 26.3102 47.7717 26.3102C44.3139 26.3102 41.2028 24.1787 40.425 21.1822Z" fill="#24331E"/>
<path id="Vector_3" d="M67.8223 31.496V24.3218H67.7361C67.5059 24.8693 65.9495 26.3093 63.2997 26.3093C59.8997 26.3093 56.1548 23.7449 56.1548 18.5306C56.1548 13.3164 59.9006 10.752 63.2997 10.752C65.9503 10.752 67.5059 12.1929 67.7361 12.7404H67.8223V11.0409H72.2881V31.496H67.8223ZM64.2215 22.3342C66.1806 22.3342 67.9379 20.9804 67.9379 18.5315C67.9379 16.0826 66.1806 14.7289 64.2215 14.7289C62.2623 14.7289 60.5628 16.112 60.5628 18.5315C60.5628 20.9511 62.3201 22.3342 64.2215 22.3342Z" fill="#24331E"/>
<path id="Vector_4" d="M89.2428 26.0222H84.777V24.1209C83.9414 25.3884 82.4721 26.3102 80.3406 26.3102C77.3157 26.3102 74.7512 24.4373 74.7512 19.8569V11.0409H79.217V19.0791C79.217 20.952 80.1681 22.3351 82.0117 22.3351C83.8552 22.3351 84.7779 20.952 84.7779 19.0791V11.0409H89.2437V26.0222H89.2428Z" fill="#24331E"/>
<path id="Vector_5" d="M90.9983 18.5315C90.9983 13.3164 94.7441 10.7529 98.1432 10.7529C100.794 10.7529 102.349 12.1938 102.581 12.7413H102.667V11.0418H107.133V26.0231H102.667V24.3235H102.581C102.35 24.8711 100.794 26.3111 98.1432 26.3111C94.7432 26.3111 90.9983 23.7466 90.9983 18.5324V18.5315ZM99.065 22.3342C101.024 22.3342 102.781 20.9804 102.781 18.5315C102.781 16.0826 101.024 14.7289 99.065 14.7289C97.1058 14.7289 95.4063 16.112 95.4063 18.5315C95.4063 20.9511 97.1636 22.3342 99.065 22.3342Z" fill="#24331E"/>
<path id="Vector_6" d="M109.636 11.0409H114.101V15.1031C114.591 12.6826 116.032 10.7529 118.74 10.7529C119.085 10.7529 119.431 10.7813 119.805 10.8969V15.1315C119.46 15.0738 119.142 15.0453 118.768 15.0453C115.801 15.0453 114.101 17.0329 114.101 19.8569V26.0222H109.635V11.0409H109.636Z" fill="#24331E"/>
<path id="Vector_7" d="M120.338 18.56C120.338 13.4889 124.112 10.752 127.973 10.752C131.833 10.752 136.241 13.4026 135.291 20.2595H124.631C125.237 21.8729 126.734 22.68 128.722 22.68C130.047 22.68 131.229 22.3635 132.324 21.528L134.341 23.6311C133.101 25.1866 130.97 26.3102 128.233 26.3102C124.085 26.3102 120.339 23.4871 120.339 18.56H120.338ZM131.373 17.0622C131.055 15.3333 129.529 14.4978 128.03 14.4978C126.532 14.4978 125.034 15.2755 124.544 17.0622H131.373Z" fill="#24331E"/>
<path id="Vector_8" d="M137.421 5.56711H144.912C149.349 5.56711 152.345 8.304 152.345 12.6542C152.345 17.0044 149.349 19.6836 144.912 19.6836H141.973V26.0222H137.421V5.56711ZM144.48 15.5067C146.324 15.5067 147.735 14.8436 147.735 12.6542C147.735 10.4649 146.324 9.744 144.48 9.744H141.973V15.5058H144.48V15.5067Z" fill="#24331E"/>
<path id="Vector_9" d="M153.002 18.56C153.002 13.4889 156.776 10.752 160.636 10.752C164.497 10.752 168.905 13.4026 167.955 20.2595H157.295C157.9 21.8729 159.398 22.68 161.386 22.68C162.711 22.68 163.892 22.3635 164.987 21.528L167.004 23.6311C165.765 25.1866 163.634 26.3102 160.897 26.3102C156.748 26.3102 153.003 23.4871 153.003 18.56H153.002ZM164.036 17.0622C163.719 15.3333 162.193 14.4978 160.694 14.4978C159.195 14.4978 157.698 15.2755 157.208 17.0622H164.036Z" fill="#24331E"/>
<path id="Vector_10" d="M172.721 31.1218V27.5493C173.413 28.0106 174.91 28.2986 176.236 28.2986C179.059 28.2986 180.615 26.9733 180.615 25.1298V24.3226H180.443C180.213 24.8702 178.714 26.3102 176.121 26.3102C172.721 26.3102 168.947 23.7458 168.947 18.5315C168.947 13.3173 172.721 10.7529 176.121 10.7529C178.714 10.7529 180.212 12.1938 180.443 12.7413H180.615V11.0418H185.081V24.7555C185.081 30.6906 180.413 32.016 177.072 32.016C175.459 32.016 173.672 31.7564 172.722 31.1226L172.721 31.1218ZM177.043 22.3342C179.002 22.3342 180.731 20.9804 180.731 18.5315C180.731 16.0826 179.002 14.7289 177.043 14.7289C175.084 14.7289 173.355 16.112 173.355 18.5315C173.355 20.9511 175.112 22.3342 177.043 22.3342Z" fill="#24331E"/>
</g>
</g>
</svg>
