<svg xmlns="http://www.w3.org/2000/svg" width="120" height="120" viewBox="0 0 120 120" fill="none">
<path d="M3.32129 3.08173L3.32129 47.9053L47.9149 47.9053L47.9149 3.08173L3.32129 3.08173Z" fill="#314529"/>
<path d="M119.643 94.4977C119.643 108.588 108.291 120 94.273 120C80.2554 120 68.9033 108.588 68.9033 94.4977C68.9033 80.4076 80.26 68.9955 94.273 68.9955C108.286 68.9955 119.643 80.4076 119.643 94.4977Z" fill="#314529"/>
<path d="M50.9972 94.4977C50.9972 80.4132 39.6388 68.9955 25.6275 68.9955C11.6162 68.9955 0.257813 80.4132 0.257813 94.4977C0.257813 108.582 11.6162 120 25.6275 120C39.6388 120 50.9972 108.582 50.9972 94.4977Z" fill="#314529"/>
<path d="M119.643 25.5021C119.643 39.5923 108.291 51.0044 94.273 51.0044C80.2554 51.0044 68.9033 39.5923 68.9033 25.5021C68.9033 11.412 80.26 -0.000102861 94.273 -0.000102694C108.286 -0.000102527 119.643 11.412 119.643 25.5021Z" fill="#314529"/>
</svg>