<svg width="210" height="192" viewBox="0 0 210 192" fill="none" xmlns="http://www.w3.org/2000/svg">
<g clip-path="url(#clip0_1_7)">
<path d="M13.8984 4.93039V76.6479L85.2482 76.648V4.93039H13.8984Z" fill="#314529"/>
<path d="M200.011 151.196C200.011 173.741 181.848 192 159.42 192C136.991 192 118.828 173.741 118.828 151.196C118.828 128.652 136.999 110.393 159.42 110.393C181.84 110.393 200.011 128.652 200.011 151.196Z" fill="#314529"/>
<path d="M90.179 151.196C90.179 128.661 72.0056 110.393 49.5876 110.393C27.1695 110.393 8.99609 128.661 8.99609 151.196C8.99609 173.732 27.1695 192 49.5876 192C72.0056 192 90.179 173.732 90.179 151.196Z" fill="#314529"/>
<path d="M200.011 40.8029C200.011 63.3472 181.848 81.6064 159.42 81.6064C136.991 81.6064 118.828 63.3472 118.828 40.8029C118.828 18.2587 136.999 -0.00061062 159.42 -0.000610352C181.84 -0.000610085 200.011 18.2587 200.011 40.8029Z" fill="#314529"/>
</g>
<defs>
<clipPath id="clip0_1_7">
<rect width="192" height="192" fill="white" transform="translate(9)"/>
</clipPath>
</defs>
</svg>
