<svg width="191" height="32" viewBox="0 0 191 32" fill="none" xmlns="http://www.w3.org/2000/svg">
<g id="Direction-2-Logo-Round-2-B" clip-path="url(#clip0_16663_15468)">
<path id="Vector" d="M7.64968 0C3.4226 0 0 3.40912 0 7.61955V22.465C0 26.6719 3.4226 30.0846 7.64968 30.0846H22.5539C26.7774 30.0846 30.2035 26.6754 30.2035 22.465V0H7.64968ZM17.3176 4.64975H25.5354V12.8351H17.3176V4.64975ZM8.77526 26.0007C6.19243 26.0007 4.10006 23.9165 4.10006 21.3439C4.10006 18.7712 6.19243 16.6871 8.77526 16.6871C11.3581 16.6871 13.4505 18.7712 13.4505 21.3439C13.4505 23.9165 11.3581 26.0007 8.77526 26.0007ZM8.77526 13.401C6.19243 13.401 4.10006 11.3169 4.10006 8.74421C4.10006 6.17155 6.19243 4.08742 8.77526 4.08742C11.3581 4.08742 13.4505 6.17155 13.4505 8.74421C13.4505 11.3169 11.3581 13.401 8.77526 13.401ZM21.4248 26.0007C18.8419 26.0007 16.7496 23.9165 16.7496 21.3439C16.7496 18.7712 18.8419 16.6871 21.4248 16.6871C24.0076 16.6871 26.1 18.7712 26.1 21.3439C26.1 23.9165 24.0076 26.0007 21.4248 26.0007Z" fill="#0F1419"/>
<path id="Vector_2" d="M177.87 27.3608C179.37 28.0285 180.901 28.2008 182.475 28.0461C183.452 27.9512 184.37 27.6736 185.135 27.0164C185.746 26.4927 186.074 25.8214 186.131 25.0271C186.155 24.6722 186.134 24.3172 186.134 23.9025C186.035 23.9657 185.951 23.9938 185.912 24.0501C185.118 25.1396 183.982 25.6773 182.701 25.8952C178.643 26.5806 174.949 24.029 174.13 19.9732C173.661 17.6536 173.866 15.4008 175.101 13.3237C176.882 10.3293 180.725 8.97968 183.872 10.2273C184.684 10.5507 185.407 11.0005 185.915 11.7421C185.954 11.7983 186.039 11.8229 186.145 11.8862V10.1324H190.83V10.4452C190.83 15.0458 190.83 19.6463 190.83 24.2434C190.83 25.6351 190.64 26.9918 189.98 28.2465C189.112 29.8948 187.718 30.914 185.972 31.4517C183.629 32.1722 181.265 32.1687 178.904 31.5115C177.87 31.2233 177.874 31.2057 177.874 30.1373V27.3573L177.87 27.3608ZM186.275 17.9031C186.254 17.6817 186.24 17.4638 186.212 17.2424C185.806 13.9809 182.217 13.1444 180.143 14.61C178.936 15.4605 178.498 16.6765 178.537 18.1035C178.615 20.7429 181.046 22.4756 183.586 21.7024C185.266 21.1892 186.258 19.7869 186.272 17.9066L186.275 17.9031Z" fill="#0F1419"/>
<path id="Vector_3" d="M67.3502 11.8444V10.1293H72.0148V31.4135H67.3466V23.9626C66.6727 24.8342 65.7941 25.3508 64.7956 25.6742C61.3695 26.7848 57.5517 25.2068 56.0133 21.8996C54.6301 18.9262 54.6866 15.8897 56.4755 13.0886C58.0456 10.6319 60.4344 9.58808 63.3524 9.81301C64.5239 9.90439 65.6001 10.291 66.5245 11.029C66.8138 11.2575 67.0538 11.5492 67.3502 11.8444ZM67.4596 17.9C67.4596 17.7735 67.4666 17.6505 67.4596 17.5239C67.4525 17.4185 67.4349 17.3131 67.4172 17.2076C67.1843 15.6788 66.3657 14.5998 64.8803 14.1289C63.3524 13.6474 61.934 13.911 60.7943 15.0884C59.8522 16.0584 59.6299 17.2709 59.7958 18.5748C60.0675 20.6976 62.0152 22.1596 64.1358 21.8293C66.1999 21.5094 67.4666 20.0158 67.4596 17.893V17.9Z" fill="#0F1419"/>
<path id="Vector_4" d="M145.47 25.7197H140.699V4.38281C140.812 4.38281 140.904 4.38281 140.999 4.38281C143.497 4.38281 145.992 4.38281 148.49 4.38281C149.951 4.38281 151.359 4.62883 152.661 5.3212C154.524 6.30879 155.677 7.84113 156.119 9.89363C156.507 11.6861 156.408 13.4504 155.607 15.1198C154.587 17.2531 152.812 18.441 150.533 18.8944C149.81 19.0385 149.055 19.0666 148.314 19.0912C147.379 19.1228 146.44 19.0982 145.466 19.0982V25.7197H145.47ZM145.484 8.69165V14.7683C146.676 14.7367 147.851 14.7613 149.012 14.6594C150.088 14.5645 150.96 14.0689 151.313 12.9618C151.426 12.6104 151.472 12.2273 151.489 11.8548C151.57 10.217 150.738 9.06068 149.185 8.86035C147.975 8.70571 146.74 8.74086 145.484 8.68814V8.69165Z" fill="#0F1419"/>
<path id="Vector_5" d="M103.883 11.8515V10.1259H108.548V25.7129H103.89V23.9697L103.834 23.9486C103.732 24.0787 103.636 24.2157 103.524 24.3352C102.761 25.1436 101.802 25.5969 100.736 25.843C96.9112 26.7181 93.0758 24.4161 92.0208 20.55C91.3433 18.0617 91.5021 15.6121 92.8288 13.3382C94.6777 10.1716 98.8025 8.86768 102.038 10.393C102.726 10.7163 103.351 11.1346 103.778 11.7883C103.788 11.8058 103.82 11.8129 103.88 11.848L103.883 11.8515ZM104.025 17.9036C104 17.6646 103.989 17.4221 103.95 17.1866C103.718 15.6824 102.913 14.6175 101.449 14.143C99.9351 13.651 98.5237 13.897 97.3734 15.0463C96.3996 16.0198 96.1597 17.2429 96.329 18.5714C96.6007 20.7117 98.5555 22.1738 100.694 21.8293C102.747 21.499 104 20.0123 104.021 17.9036H104.025Z" fill="#0F1419"/>
<path id="Vector_6" d="M53.1799 8.63496C52.0049 9.2957 50.8405 9.94589 49.6655 10.6066C49.4856 10.3465 49.3197 10.0865 49.1327 9.84397C48.3494 8.80718 47.3438 8.19916 45.9995 8.3292C45.6396 8.36434 45.2691 8.45221 44.9409 8.59982C43.9036 9.0778 43.646 10.452 44.4646 11.2744C44.8386 11.6504 45.3044 11.9632 45.7842 12.1917C46.6805 12.6205 47.6155 12.9684 48.5329 13.3515C49.7326 13.8506 50.8899 14.4199 51.8955 15.2599C53.3916 16.5111 53.9597 18.1313 53.7832 20.0256C53.5327 22.7178 51.9802 24.4329 49.5385 25.3853C47.1709 26.3096 44.7822 26.2675 42.4569 25.2026C40.548 24.3274 39.2037 22.9146 38.5685 20.8832C38.5474 20.8199 38.5368 20.7531 38.5156 20.6618C39.7894 20.0783 41.0632 19.4949 42.344 18.9045C42.5239 19.2278 42.6898 19.5512 42.8803 19.8604C43.8154 21.3822 45.5584 22.0676 47.2133 21.565C48.0777 21.3014 48.6529 20.7602 48.8152 19.8429C48.9881 18.8623 48.6917 18.068 47.8202 17.5373C47.4497 17.3124 47.0615 17.1085 46.6628 16.9398C45.756 16.5568 44.8316 16.2159 43.9247 15.8257C42.7533 15.3232 41.663 14.6976 40.7562 13.7803C39.0131 12.0195 38.9355 9.27461 39.8952 7.4365C40.7315 5.83035 42.097 4.87439 43.8118 4.41047C46.003 3.81651 48.1307 3.99224 50.1172 5.15204C51.5109 5.96742 52.4918 7.16237 53.1763 8.63145L53.1799 8.63496Z" fill="#0F1419"/>
<path id="Vector_7" d="M137.468 23.2202C136.889 23.9512 136.187 24.517 135.386 24.9634C132.168 26.7628 127.747 26.2427 125.129 23.7368C123.831 22.4962 123.111 20.9533 122.885 19.1855C122.652 17.386 122.843 15.6393 123.672 14.005C124.861 11.6749 126.812 10.3323 129.367 9.89299C131.65 9.49936 133.784 9.93868 135.665 11.3199C137.369 12.5676 138.22 14.3178 138.505 16.3703C138.647 17.3895 138.618 18.4088 138.505 19.428C138.495 19.5123 138.474 19.5967 138.453 19.6986H127.313C127.507 20.2715 127.818 20.7213 128.231 21.1044C128.947 21.7722 129.822 22.085 130.775 22.1834C132.204 22.331 133.576 22.1482 134.825 21.3856C134.998 21.2801 135.164 21.1642 135.365 21.0306C136.06 21.7546 136.762 22.4821 137.472 23.2202H137.468ZM127.236 16.3457H134.324C134.268 15.0488 132.828 13.8152 131.272 13.6922C128.947 13.5095 127.546 14.9223 127.236 16.3457Z" fill="#0F1419"/>
<path id="Vector_8" d="M161.287 19.7062C161.615 20.5813 162.166 21.2175 162.953 21.6392C164.188 22.2999 165.511 22.3316 166.852 22.1207C167.766 21.9766 168.584 21.5935 169.336 21.0312C170.041 21.7622 170.737 22.4862 171.446 23.2243C170.962 23.8463 170.38 24.3419 169.724 24.7566C166.52 26.7986 161.827 26.3522 159.096 23.7269C157.808 22.4897 157.092 20.9574 156.866 19.2001C156.626 17.3409 156.831 15.5379 157.727 13.865C158.934 11.6087 160.867 10.3294 163.366 9.89006C165.183 9.57024 166.94 9.81977 168.581 10.6633C170.92 11.8617 172.13 13.8439 172.49 16.392C172.631 17.4007 172.592 18.4093 172.49 19.4215C172.465 19.664 172.367 19.7097 172.144 19.7097C168.651 19.7027 165.155 19.7062 161.661 19.7062H161.287ZM161.224 16.3428H168.312C168.133 14.9299 166.785 13.7174 164.918 13.6823C162.822 13.6436 161.485 15.0037 161.224 16.3428Z" fill="#0F1419"/>
<path id="Vector_9" d="M85.1406 10.125H89.8123V25.712H85.1548V23.8001C85.0771 23.8669 85.0489 23.881 85.0277 23.9091C83.9939 25.3114 82.5543 25.9299 80.8571 26.0143C79.481 26.0811 78.179 25.8175 77.0358 25.0021C75.8044 24.1235 75.141 22.8828 74.8587 21.4383C74.7211 20.7319 74.6506 20.0044 74.6435 19.2874C74.6188 16.3176 74.6329 13.3478 74.6329 10.378C74.6329 10.3007 74.64 10.2269 74.6435 10.132H79.3152V10.4765C79.3152 13.1194 79.3152 15.7588 79.3152 18.4018C79.3152 19.1433 79.4175 19.8638 79.795 20.5175C80.3914 21.5543 81.3334 21.9304 82.4873 21.8601C83.5458 21.7968 84.3432 21.2942 84.7561 20.3207C84.9642 19.8252 85.1124 19.2663 85.1195 18.7321C85.1583 15.9838 85.1406 13.2389 85.1442 10.4905C85.1442 10.378 85.1442 10.2621 85.1442 10.125H85.1406Z" fill="#0F1419"/>
<path id="Vector_10" d="M115.9 14.0727C116.158 13.2925 116.433 12.5368 116.874 11.848C117.947 10.168 119.746 9.56353 121.479 9.8236C121.898 9.88686 121.895 9.89741 121.895 10.3086C121.895 11.5317 121.895 12.7583 121.895 13.9813V14.2695C121.348 14.2695 120.819 14.2414 120.293 14.2765C118.949 14.3679 117.798 14.8705 116.952 15.946C116.246 16.8457 115.939 17.8965 115.925 19.0177C115.9 21.1299 115.914 23.2386 115.911 25.3509C115.911 25.4634 115.911 25.5793 115.911 25.7129H111.246V10.1259H115.897V14.0762L115.9 14.0727Z" fill="#0F1419"/>
</g>
<defs>
<clipPath id="clip0_16663_15468">
<rect width="191" height="32" fill="white"/>
</clipPath>
</defs>
</svg>
